/vscmnt/brussel_pixiu_data/_data_brussel/112/vsc11236/PredSimResults/SUBJ09_Dhondt2024_3seg/weighted-LRposFixed/worker_01.mot
version=1
nRows=4
nColumns=124
inDegrees=yes
endheader
                time	         pelvis_tilt	         pelvis_list	     pelvis_rotation	           pelvis_tx	           pelvis_ty	           pelvis_tz	       hip_flexion_r	     hip_adduction_r	      hip_rotation_r	        knee_angle_r	       ankle_angle_r	    subtalar_angle_r	         mtp_angle_r	       hip_flexion_l	     hip_adduction_l	      hip_rotation_l	        knee_angle_l	       ankle_angle_l	    subtalar_angle_l	         mtp_angle_l	    lumbar_extension	      lumbar_bending	     lumbar_rotation	          arm_flex_r	           arm_add_r	           arm_rot_r	        elbow_flex_r	          arm_flex_l	           arm_add_l	           arm_rot_l	        elbow_flex_l	glut_med1_r/activation	glut_med2_r/activation	glut_med3_r/activation	glut_min1_r/activation	glut_min2_r/activation	glut_min3_r/activation	semimem_r/activation	semiten_r/activation	bifemlh_r/activation	bifemsh_r/activation	    sar_r/activation	add_long_r/activation	add_brev_r/activation	add_mag1_r/activation	add_mag2_r/activation	add_mag3_r/activation	    tfl_r/activation	   pect_r/activation	   grac_r/activation	glut_max1_r/activation	glut_max2_r/activation	glut_max3_r/activation	iliacus_r/activation	  psoas_r/activation	quad_fem_r/activation	    gem_r/activation	   peri_r/activation	rect_fem_r/activation	vas_med_r/activation	vas_int_r/activation	vas_lat_r/activation	med_gas_r/activation	lat_gas_r/activation	 soleus_r/activation	tib_post_r/activation	flex_dig_r/activation	flex_hal_r/activation	tib_ant_r/activation	per_brev_r/activation	per_long_r/activation	per_tert_r/activation	ext_dig_r/activation	ext_hal_r/activation	glut_med1_l/activation	glut_med2_l/activation	glut_med3_l/activation	glut_min1_l/activation	glut_min2_l/activation	glut_min3_l/activation	semimem_l/activation	semiten_l/activation	bifemlh_l/activation	bifemsh_l/activation	    sar_l/activation	add_long_l/activation	add_brev_l/activation	add_mag1_l/activation	add_mag2_l/activation	add_mag3_l/activation	    tfl_l/activation	   pect_l/activation	   grac_l/activation	glut_max1_l/activation	glut_max2_l/activation	glut_max3_l/activation	iliacus_l/activation	  psoas_l/activation	quad_fem_l/activation	    gem_l/activation	   peri_l/activation	rect_fem_l/activation	vas_med_l/activation	vas_int_l/activation	vas_lat_l/activation	med_gas_l/activation	lat_gas_l/activation	 soleus_l/activation	tib_post_l/activation	flex_dig_l/activation	flex_hal_l/activation	tib_ant_l/activation	per_brev_l/activation	per_long_l/activation	per_tert_l/activation	ext_dig_l/activation	ext_hal_l/activation	 ercspn_r/activation	 ercspn_l/activation	 intobl_r/activation	 intobl_l/activation	 extobl_r/activation	 extobl_l/activation	
          1.65745351	         -2.92885845	          2.09751288	         -1.76956815	          1.97236968	          0.98950366	          0.00181763	        -14.06955555	          0.06136325	          7.09358265	         -7.76957947	          6.13367047	          7.31505540	         16.63745359	         23.30511252	          3.89330463	          1.54712562	         -4.56333349	          6.37968575	         -3.04224723	          0.18043520	         -3.78995093	         -1.76095570	          1.60235735	          0.39218267	        -13.67288875	         19.01871560	         45.57666963	         -8.43332607	        -13.45463462	         13.48833589	         31.67072780	          0.21582393	          0.11135316	          0.06611647	          0.29587289	          0.25040436	          0.16877994	          0.01000082	          0.01000021	          0.01000016	          0.04706022	          0.08458949	          0.01000005	          0.01000006	          0.01000010	          0.01000035	          0.01000019	          0.37716935	          0.01000033	          0.01000056	          0.01661121	          0.01184617	          0.01000063	          0.24721964	          0.43705171	          0.01183650	          0.01660489	          0.07335633	          0.27961753	          0.01000017	          0.01000017	          0.01000015	          0.32311266	          0.41029855	          0.34389525	          0.29829604	          0.38768266	          0.44645706	          0.01359022	          0.01000018	          0.13591721	          0.01595483	          0.01608148	          0.01509740	          0.02081985	          0.01402220	          0.01000037	          0.01402249	          0.01402234	          0.01000050	          0.04448794	          0.06796846	          0.22487561	          0.01000016	          0.01000026	          0.10787784	          0.15118347	          0.13937004	          0.13559604	          0.08513225	          0.01000027	          0.02322555	          0.03605970	          0.01184321	          0.03130186	          0.04118472	          0.01000006	          0.01000007	          0.01878956	          0.01000023	          0.01000008	          0.01123550	          0.06998487	          0.07140392	          0.05943705	          0.01000000	          0.01000003	          0.01000000	          0.01184161	          0.01184162	          0.01184161	          0.25224352	          0.16611074	          0.11841833	          0.12341554	          0.28074493	          0.04851600	          0.01000000	          0.01760528	          0.01000000	          0.03188298	          0.01000001	          0.06224106	
          1.66850320	         -2.92345662	          2.41250870	         -1.87347049	          1.98800175	          0.98915489	          0.00156883	        -14.07005195	         -0.30526003	          6.85206449	         -9.32224334	          5.26657739	          7.78976855	         17.87512457	         22.35127720	          4.46719799	          1.64390542	         -3.53750560	          5.47652920	         -3.19447605	          0.19661347	         -3.61433778	         -2.22835879	          1.67693220	         -0.10286348	        -13.69418994	         18.99160205	         46.57119184	         -8.80198408	        -13.44990500	         13.16232047	         31.10352139	          0.19257657	          0.09403546	          0.05583401	          0.24985864	          0.21146136	          0.14253120	          0.01000031	          0.01000006	          0.01000003	          0.03974140	          0.07143412	          0.01881891	          0.01000015	          0.01000013	          0.01000034	          0.01000012	          0.31851189	          0.04900061	          0.01000097	          0.01402802	          0.01000406	          0.01000022	          0.20877193	          0.36908120	          0.01000007	          0.01402256	          0.06194791	          0.23613158	          0.01000016	          0.01000016	          0.01000013	          0.28972561	          0.37552656	          0.31954676	          0.28257090	          0.35871339	          0.42206725	          0.01147666	          0.01000036	          0.13115286	          0.01347353	          0.01358048	          0.01274945	          0.01758194	          0.01184154	          0.01000007	          0.01184172	          0.01184162	          0.01000059	          0.03756917	          0.05739800	          0.18990284	          0.01000001	          0.01000007	          0.09110076	          0.21077537	          0.19559155	          0.18297331	          0.07189254	          0.01000012	          0.02774245	          0.03045185	          0.01000154	          0.02643384	          0.08361892	          0.01000004	          0.01000002	          0.03074703	          0.19187853	          0.06315443	          0.01660510	          0.09255091	          0.09288153	          0.07828550	          0.01000003	          0.01000004	          0.01163999	          0.01000000	          0.01000005	          0.01000005	          0.28372433	          0.17201033	          0.10363326	          0.17400677	          0.31991721	          0.04097078	          0.01638183	          0.01486730	          0.01056494	          0.02692452	          0.01000010	          0.05256129	
          1.67955289	         -2.91372769	          2.73688445	         -1.96271063	          2.00389580	          0.98879557	          0.00132757	        -13.98879590	         -0.67903727	          6.58758103	        -11.02151086	          4.22912554	          8.27186366	         19.14514754	         21.39151952	          4.99634989	          1.76111978	         -3.03090674	          4.24246541	         -3.31616815	          0.21672929	         -3.42052678	         -2.71081158	          1.74261607	         -0.64949988	        -13.70884375	         18.95713518	         47.52452716	         -9.12593406	        -13.45705154	         12.98390606	         30.41541039	          0.16262696	          0.07941101	          0.04715067	          0.21100051	          0.17857478	          0.12036468	          0.01183040	          0.01000836	          0.01184158	          0.03356080	          0.06032467	          0.04814582	          0.01184848	          0.01184219	          0.01184254	          0.01184225	          0.26897678	          0.04138042	          0.01000338	          0.01184661	          0.01184152	          0.01184175	          0.17630360	          0.31168148	          0.01184159	          0.01184190	          0.05231375	          0.21124022	          0.03994836	          0.03841233	          0.03620058	          0.24466732	          0.31712597	          0.28000626	          0.25826555	          0.30292621	          0.35642726	          0.01000000	          0.01000005	          0.12862042	          0.01137813	          0.01146844	          0.01076666	          0.01484759	          0.01000001	          0.03695732	          0.01000010	          0.01000002	          0.01000003	          0.03172642	          0.04847163	          0.16036905	          0.01966292	          0.01000418	          0.07693283	          0.25307203	          0.24380399	          0.15451852	          0.06071180	          0.01000003	          0.02342916	          0.16523879	          0.01000181	          0.02232287	          0.07061447	          0.01000012	          0.01402255	          0.19477122	          0.16203748	          0.05333262	          0.01402268	          0.07815737	          0.07843657	          0.06611052	          0.01418312	          0.01660484	          0.01000001	          0.01966289	          0.01660596	          0.01865647	          0.23959944	          0.18764256	          0.12239597	          0.14694516	          0.27016357	          0.07936529	          0.02247266	          0.01255513	          0.01813464	          0.02273721	          0.01402230	          0.04438693	
          1.69060258	         -2.90095276	          3.08318585	         -2.03571558	          2.01995616	          0.98845005	          0.00112661	        -13.80974490	         -1.06930046	          6.29150066	        -12.87609219	          3.00196454	          8.74217320	         20.41408272	         20.42151072	          5.44248733	          1.91962507	         -2.77368431	          2.72590288	         -3.42143189	          0.21524200	         -3.21573799	         -3.22469965	          1.79664035	         -1.23397146	        -13.70834803	         18.91573802	         48.43278476	         -9.38893813	        -13.48588118	         12.97558878	         29.60253042	          0.22636148	          0.06706097	          0.03981777	          0.31087227	          0.15080277	          0.10164550	          0.01000047	          0.01000005	          0.01000003	          0.02834141	          0.05094297	          0.04065828	          0.01000585	          0.01000053	          0.01000090	          0.01000058	          0.22714585	          0.05663065	          0.01000032	          0.01000439	          0.01000027	          0.01000022	          0.14888478	          0.26320862	          0.01000003	          0.01000030	          0.04417789	          0.17838803	          0.03373558	          0.03243844	          0.03057065	          0.20661651	          0.26780636	          0.23645952	          0.21809998	          0.25581499	          0.30099552	          0.01000000	          0.02541332	          0.13506425	          0.01000002	          0.01000000	          0.01000003	          0.23659339	          0.21258249	          0.24079241	          0.20171913	          0.10034212	          0.22251768	          0.03552618	          0.04093340	          0.13542836	          0.01660498	          0.01184159	          0.06496820	          0.21371413	          0.20588748	          0.13048776	          0.05126990	          0.01184114	          0.01978557	          0.13954080	          0.01000005	          0.01885123	          0.05963249	          0.01184178	          0.01184181	          0.16448031	          0.13683739	          0.13862256	          0.01184187	          0.06600235	          0.06623813	          0.05582903	          0.01197736	          0.01402246	          0.01184160	          0.01660491	          0.01402342	          0.01575503	          0.37855430	          0.19164061	          0.10336100	          0.44148754	          0.38024253	          0.18648718	          0.03438161	          0.02228458	          0.01531433	          0.01966274	          0.01184156	          0.03748385	
